<?xml version="1.0" standalone="no"?>
<!DOCTYPE svg PUBLIC "-//W3C//DTD SVG 20010904//EN"
 "http://www.w3.org/TR/2001/REC-SVG-20010904/DTD/svg10.dtd">
<svg version="1.0" xmlns="http://www.w3.org/2000/svg"
 width="196.000000pt" height="188.000000pt" viewBox="0 0 196.000000 188.000000"
 preserveAspectRatio="xMidYMid meet">

<g transform="translate(0.000000,188.000000) scale(0.100000,-0.100000)"
fill="#000000" stroke="none">
<path d="M537 1323 c-4 -3 -7 -118 -7 -254 0 -245 0 -248 22 -260 26 -14 416
-5 431 10 5 5 7 19 5 32 l-3 24 -187 3 -187 2 -7 56 c-6 53 3 301 12 316 2 3
73 5 157 4 83 -2 232 -4 330 -5 l177 -1 0 -131 0 -130 38 3 37 3 3 168 2 167
-408 0 c-225 0 -412 -3 -415 -7z"/>
<path d="M875 1149 c-31 -27 -35 -37 -35 -78 0 -61 37 -101 102 -108 54 -6 92
21 109 76 15 50 -8 103 -56 125 -49 24 -80 20 -120 -15z m103 -80 c4 -44 -18
-58 -54 -34 -28 18 -30 32 -7 57 28 31 57 19 61 -23z"/>
<path d="M1185 950 c-3 -5 -8 -40 -11 -77 -8 -98 -7 -97 -61 -63 -55 35 -71
28 -53 -24 15 -46 114 -136 150 -136 38 0 150 107 150 143 0 15 1 30 2 35 5
20 -34 9 -66 -19 -20 -17 -39 -29 -42 -27 -3 3 -8 44 -11 92 -6 81 -7 86 -29
86 -13 0 -25 -4 -29 -10z"/>
</g>
</svg>
